<svg width="118" height="147" viewBox="0 0 118 147" fill="none" xmlns="http://www.w3.org/2000/svg">
    <path
        d="M1 41.5C22.4744 46.8321 32.7948 51.6082 47 64.5L72 68C81.193 55.2145 90.2515 50.5643 116.5 42.5C98.9086 40.3752 93.4235 40.4365 79 46.5C76.3901 34.5864 93 1 93 1C93 1 69.5294 12.8199 62.5 41.5C52.4173 25.528 44.6448 19.6677 27.5 14C38.9047 25.1618 43.1415 32.9551 47 49.5C31.7769 38.9827 21.4284 37.9754 1 41.5Z"
        fill="#3FBD6F" />
    <path
        d="M46.256 73.824C52.144 75.4453 60.08 76.768 70.064 77.792C66.224 92.0427 63.2373 104.843 61.104 116.192C58.9707 127.456 57.776 135.221 57.52 139.488L57.136 145.76C50.6507 143.797 44.464 140 38.576 134.368C39.088 124.64 39.984 114.741 41.264 104.672C42.544 94.5173 43.696 86.8373 44.72 81.632L46.256 73.824Z"
        fill="#B77820" />
</svg>