<svg width="24" height="24" viewBox="0 0 24 24" fill="none" xmlns="http://www.w3.org/2000/svg">
<path d="M17.9535 5.39099L20.6258 10.758C20.673 10.8285 20.6963 10.9222 20.7195 10.9927C20.8838 11.415 21.0008 12.0007 21.0008 12.3757V14.9302C21.0008 15.7275 20.4615 16.3837 19.7115 16.5712V18.0712C19.7115 18.798 19.1258 19.3605 18.4223 19.3605C17.6955 19.3605 17.133 18.798 17.133 18.0712V16.6177H6.86702V18.0712C6.86702 18.798 6.30452 19.3605 5.57777 19.3605C4.87427 19.3605 4.28852 18.798 4.28852 18.0712V16.5712C3.53852 16.3837 2.99927 15.7275 2.99927 14.9302V12.3757C2.99927 12.0007 3.11627 11.415 3.28052 10.9927C3.30377 10.9222 3.32777 10.8285 3.37427 10.758L6.04652 5.39099C6.25727 4.99274 6.81977 4.61774 7.28852 4.61774H16.7108C17.1795 4.61774 17.7428 4.99274 17.9535 5.39099ZM7.14827 7.00799L5.71877 10.266C5.64827 10.383 5.64827 10.524 5.64827 10.6177H18.3518C18.3518 10.524 18.3518 10.383 18.2813 10.266L16.8518 7.00799C16.6643 6.58574 16.1018 6.21074 15.6563 6.21074H8.34377C7.89827 6.21074 7.33577 6.58574 7.14827 7.00799ZM6.51602 14.9295C7.26602 14.9295 7.85177 14.3197 7.85177 13.5465C7.85177 12.7965 7.26602 12.2107 6.51602 12.2107C5.76602 12.2107 5.13302 12.7965 5.13302 13.5465C5.13302 14.3197 5.76602 14.9295 6.51602 14.9295ZM17.4848 14.9295C18.2348 14.9295 18.8678 14.3197 18.8678 13.5465C18.8678 12.7965 18.2348 12.2107 17.4848 12.2107C16.7348 12.2107 16.149 12.7965 16.149 13.5465C16.149 14.3197 16.7348 14.9295 17.4848 14.9295Z" fill="#212121" stroke="#212121" stroke-width="0.00024"/>
</svg>
