<svg width="36" height="36" viewBox="0 0 36 36" fill="none" xmlns="http://www.w3.org/2000/svg">
<path d="M4.56143 5.22207C4.75927 4.65938 5.3758 4.36359 5.9385 4.56143L6.37251 4.71401C7.26029 5.0261 8.01433 5.29117 8.60772 5.58234C9.24222 5.89367 9.78632 6.27719 10.1955 6.87602C10.6016 7.47022 10.7692 8.12213 10.8466 8.83691C10.8812 9.15688 10.8995 9.51103 10.9091 9.9003H26.228C28.6543 9.9003 30.8385 9.9003 31.4777 10.7313C32.1171 11.5623 31.8671 12.8144 31.3673 15.3186L30.6476 18.8102C30.1938 21.0118 29.9669 22.1125 29.1724 22.76C28.378 23.4074 27.2541 23.4074 25.0063 23.4074H17.3702C13.3542 23.4074 11.3462 23.4074 10.0986 22.0915C8.85095 20.7755 8.7599 19.3777 8.7599 15.1419V11.3955C8.7599 10.3299 8.75843 9.61685 8.69916 9.06936C8.64252 8.54614 8.54216 8.28489 8.41218 8.09469C8.28538 7.90913 8.09289 7.73571 7.65625 7.52147C7.19136 7.29336 6.55957 7.06937 5.59822 6.73138L5.22208 6.59913C4.65937 6.4013 4.3636 5.78477 4.56143 5.22207Z" fill="#212121"/>
<path d="M12.3601 27.1802C13.553 27.1802 14.52 28.1473 14.52 29.3402C14.52 30.533 13.553 31.5001 12.3601 31.5001C11.1671 31.5001 10.2001 30.533 10.2001 29.3402C10.2001 28.1473 11.1671 27.1802 12.3601 27.1802Z" fill="#212121"/>
<path d="M25.3201 27.1802C26.513 27.1802 27.4801 28.1471 27.4801 29.3402C27.4801 30.533 26.513 31.5001 25.3201 31.5001C24.1272 31.5001 23.1601 30.533 23.1601 29.3402C23.1601 28.1471 24.1272 27.1802 25.3201 27.1802Z" fill="#212121"/>
</svg>
