<svg width="24" height="24" viewBox="0 0 24 24" fill="none" xmlns="http://www.w3.org/2000/svg">
<path d="M21.7303 17.9487L13.7488 4.01749C13.3892 3.38989 12.7191 3 11.9998 3C11.2806 3 10.6111 3.38989 10.2517 4.01749L2.26971 17.9481C1.9101 18.5757 1.9101 19.3552 2.26971 19.9828C2.62932 20.6104 3.29916 21 4.01807 21H19.9819C20.7008 21 21.3713 20.6104 21.7303 19.9828C22.0899 19.3552 22.0899 18.5757 21.7303 17.9487ZM12.0001 18.7089C11.31 18.7089 10.7496 18.1448 10.7496 17.4491C10.7496 16.7537 11.31 16.1896 12.0001 16.1896C12.6903 16.1896 13.25 16.7537 13.25 17.4491C13.25 18.1449 12.6903 18.7089 12.0001 18.7089ZM12.7703 14.6771C12.7703 15.1058 12.4252 15.4529 12.0001 15.4529C11.5744 15.4529 11.2299 15.1058 11.2299 14.6771L10.7496 8.98035C10.7496 8.28456 11.31 7.72053 12.0001 7.72053C12.6903 7.72053 13.25 8.2846 13.25 8.98035L12.7703 14.6771Z" fill="#212121"/>
</svg>
