<svg width="150" height="100" viewBox="0 0 450 169" fill="none" xmlns="http://www.w3.org/2000/svg">
    <path
        d="M44.672 71.44C44.0747 80.4 43.776 86.3307 43.776 89.232C43.776 97.936 43.9893 103.611 44.416 106.256L44.928 109.712L61.312 67.088C68.48 71.2693 76.5867 74.256 85.632 76.048C85.2907 83.6427 84.224 92.176 82.432 101.648C80.64 111.12 78.9333 118.672 77.312 124.304L74.88 132.752C70.3573 135.739 63.0613 137.957 52.992 139.408C54.8693 132.837 56.3627 126.523 57.472 120.464C58.6667 114.405 59.392 110.011 59.648 107.28L59.904 103.056C59.0507 104.848 57.8987 107.152 56.448 109.968C55.0827 112.784 52.48 117.179 48.64 123.152C44.8853 129.04 41.5147 133.264 38.528 135.824C36.9067 132.581 35.4987 128.229 34.304 122.768C33.1093 117.307 32.2987 112.656 31.872 108.816L31.232 103.056C30.72 104.08 30.0373 105.573 29.184 107.536C28.416 109.499 27.3493 114.149 25.984 121.488C24.704 128.827 24.064 136.805 24.064 145.424C23.04 144.912 21.6747 144.187 19.968 143.248C18.3467 142.309 15.9147 140.432 12.672 137.616C9.42933 134.8 7.25333 132.027 6.144 129.296C6.912 120.336 8.192 111.76 9.984 103.568C11.776 95.2907 13.3973 89.2747 14.848 85.52L16.896 79.76C20.3093 77.8827 24.6613 76.1333 29.952 74.512C35.328 72.8053 40.2347 71.7813 44.672 71.44ZM147.343 88.208C148.196 91.28 148.623 94.992 148.623 99.344C148.623 103.611 147.94 107.92 146.575 112.272C145.295 116.539 143.588 120.165 141.455 123.152C139.322 126.053 136.975 128.741 134.415 131.216C131.855 133.605 129.295 135.525 126.735 136.976C121.188 139.877 117.092 141.755 114.447 142.608L112.399 143.12C105.06 141.072 99.1723 138 94.735 133.904C90.7243 130.235 88.2497 127.333 87.311 125.2L86.543 123.792C86.543 116.112 87.3537 109.285 88.975 103.312C90.6817 97.2533 92.7297 92.7307 95.119 89.744C97.5083 86.672 99.8977 84.1973 102.287 82.32C104.676 80.3573 106.682 79.12 108.303 78.608L110.863 77.968C113.594 81.04 117.818 83.0453 123.535 83.984L136.719 73.744C141.839 76.304 145.38 81.1253 147.343 88.208ZM112.271 127.376C114.66 127.376 117.263 126.053 120.079 123.408C122.895 120.677 125.114 116.837 126.735 111.888C127.588 109.584 128.015 106.939 128.015 103.952C128.015 100.965 127.503 97.6373 126.479 93.968C117.007 104.293 112.271 115.429 112.271 127.376ZM212.218 88.208C213.071 91.28 213.498 94.992 213.498 99.344C213.498 103.611 212.815 107.92 211.45 112.272C210.17 116.539 208.463 120.165 206.33 123.152C204.197 126.053 201.85 128.741 199.29 131.216C196.73 133.605 194.17 135.525 191.61 136.976C186.063 139.877 181.967 141.755 179.322 142.608L177.274 143.12C169.935 141.072 164.047 138 159.61 133.904C155.599 130.235 153.125 127.333 152.186 125.2L151.418 123.792C151.418 116.112 152.229 109.285 153.85 103.312C155.557 97.2533 157.605 92.7307 159.994 89.744C162.383 86.672 164.773 84.1973 167.162 82.32C169.551 80.3573 171.557 79.12 173.178 78.608L175.738 77.968C178.469 81.04 182.693 83.0453 188.41 83.984L201.594 73.744C206.714 76.304 210.255 81.1253 212.218 88.208ZM177.146 127.376C179.535 127.376 182.138 126.053 184.954 123.408C187.77 120.677 189.989 116.837 191.61 111.888C192.463 109.584 192.89 106.939 192.89 103.952C192.89 100.965 192.378 97.6373 191.354 93.968C181.882 104.293 177.146 115.429 177.146 127.376ZM224.869 124.176C222.992 118.032 221.797 112.443 221.285 107.408C220.858 102.373 220.602 98.6613 220.517 96.272C220.517 93.8827 220.517 91.7067 220.517 89.744C220.517 87.696 220.688 85.6053 221.029 83.472L221.541 79.76C222.48 79.248 223.76 78.5653 225.381 77.712C227.088 76.8587 230.544 75.6213 235.749 74C241.04 72.3787 246.373 71.3547 251.749 70.928C246.885 81.936 244.453 93.456 244.453 105.488C244.453 112.656 245.264 118.928 246.885 124.304C250.298 118.416 253.2 111.589 255.589 103.824C258.064 96.0587 259.642 89.7867 260.325 85.008L261.477 77.712C267.45 78.9067 272.613 81.5093 276.965 85.52C278.757 87.2267 280.165 89.0613 281.189 91.024C281.189 92.816 280.72 95.504 279.781 99.088C278.842 102.587 277.776 105.787 276.581 108.688C275.386 111.504 273.509 114.747 270.949 118.416C268.474 122.085 265.573 125.371 262.245 128.272C259.002 131.088 254.778 133.691 249.573 136.08C244.453 138.384 238.736 140.005 232.421 140.944C229.264 135.824 226.746 130.235 224.869 124.176ZM355.771 115.984C358.672 99.5147 360.123 85.776 360.123 74.768C360.123 73.9147 360.123 73.1467 360.123 72.464L359.867 67.6C368.998 71.6107 376.763 74.3413 383.163 75.792C382.139 86.3733 380.646 96.784 378.683 107.024C376.806 117.179 375.142 124.688 373.691 129.552L371.643 136.848C365.84 136.848 359.739 137.872 353.339 139.92L350.139 140.944L339.387 102.288C336.912 111.589 334.267 124.56 331.451 141.2C328.123 140.005 324.667 138.299 321.083 136.08C317.499 133.776 314.768 131.515 312.891 129.296C313.83 121.019 315.28 112.741 317.243 104.464C319.291 96.1867 321.126 89.9573 322.747 85.776L325.051 79.632C331.536 77.2427 339.174 75.4933 347.963 74.384L355.771 115.984ZM404.008 140.56C393.683 136.464 386.685 131.259 383.016 124.944C383.016 115.557 385.789 105.317 391.336 94.224C396.883 83.1307 403.112 75.792 410.024 72.208C413.693 72.208 417.107 72.4213 420.264 72.848C430.845 72.336 439.464 71.2693 446.12 69.648L449.704 68.88C446.291 80.144 443.56 92.1333 441.512 104.848C438.013 103.312 434.301 101.136 430.376 98.32C426.451 95.504 423.251 92.688 420.776 89.872C413.608 100.027 409.341 111.035 407.976 122.896L424.872 118.416C425.043 115.344 425.469 112.187 426.152 108.944C432.04 110.565 439.123 111.376 447.4 111.376C445.181 116.155 441.853 125.328 437.416 138.896L435.112 145.68C431.187 144.229 428.243 140.091 426.28 133.264C420.136 136.592 412.712 139.024 404.008 140.56Z"
        fill="#FCE443" />
    <path
        d="M291.131 71.824C297.019 73.4453 304.955 74.768 314.939 75.792C311.099 90.0427 308.112 102.843 305.979 114.192C303.846 125.456 302.651 133.221 302.395 137.488L302.011 143.76C295.526 141.797 289.339 138 283.451 132.368C283.963 122.64 284.859 112.741 286.139 102.672C287.419 92.5173 288.571 84.8373 289.595 79.632L291.131 71.824Z"
        fill="#B77820" />
    <path
        d="M246 40.5C267.474 45.8321 277.795 50.6082 292 63.5L317 67C326.193 54.2145 335.252 49.5643 361.5 41.5C343.909 39.3752 338.424 39.4365 324 45.5C321.39 33.5864 338 0 338 0C338 0 314.529 11.8199 307.5 40.5C297.417 24.528 289.645 18.6677 272.5 13C283.905 24.1618 288.141 31.9551 292 48.5C276.777 37.9827 266.428 36.9754 246 40.5Z"
        fill="#3FBD6F" />
</svg>