<svg width="24" height="24" viewBox="0 0 24 24" fill="none" xmlns="http://www.w3.org/2000/svg">
<path d="M9.22475 3.39691C8.88729 2.55322 8.07019 2 7.16153 2H4.10521C2.94253 2 2 2.94233 2 4.10503C2 13.988 10.0118 22 19.8945 22C21.0571 22 21.9994 21.0573 21.9994 19.8947L22 16.8378C22 15.929 21.4469 15.1121 20.6033 14.7746L17.6739 13.6032C16.9161 13.3001 16.0533 13.4366 15.4262 13.9591L14.6702 14.5897C13.7873 15.3254 12.4882 15.2669 11.6755 14.4542L9.5467 12.3234C8.73402 11.5107 8.67396 10.2126 9.40974 9.32964L10.0401 8.57367C10.5627 7.94661 10.7003 7.08351 10.3972 6.32566L9.22475 3.39691Z" fill="#212121"/>
</svg>
