<svg width="24" height="24" viewBox="0 0 24 24" fill="none" xmlns="http://www.w3.org/2000/svg">
<path d="M5.43085 4.01705C5.56718 4.15326 5.78442 4.16305 5.93753 4.04603C9.85779 1.04975 15.4861 1.34407 19.071 4.929C22.976 8.834 22.976 15.166 19.071 19.071C15.166 22.976 8.83401 22.976 4.92901 19.071C3.73064 17.8743 2.85609 16.3926 2.38747 14.7651C1.91886 13.1376 1.87156 11.4178 2.25001 9.767V9.767C2.29233 9.59498 2.4674 9.49102 2.63869 9.53619L3.89861 9.86843C4.09879 9.92122 4.21741 10.1261 4.17416 10.3286C3.80813 12.0421 4.01427 13.8324 4.76689 15.4224C5.57308 17.1255 6.95455 18.4894 8.66785 19.2737C10.3811 20.058 12.3163 20.2123 14.1323 19.7096C15.9482 19.2068 17.5285 18.0792 18.5944 16.5254C19.6604 14.9717 20.1438 13.0915 19.9593 11.2163C19.7747 9.34103 18.9342 7.59111 17.5859 6.2749C16.2375 4.95869 14.4678 4.16066 12.5887 4.02146C10.7096 3.88226 8.8416 4.41082 7.31401 5.514V5.514C7.19734 5.60163 7.18528 5.77226 7.28846 5.87544L7.63152 6.2185C7.8398 6.42679 7.73765 6.78288 7.45063 6.84907L4.0985 7.62219C3.8285 7.68446 3.58655 7.44251 3.64882 7.17251L4.42202 3.82003C4.4882 3.53308 4.84414 3.43088 5.05247 3.63902L5.43085 4.01705ZM12.625 6C12.8321 6 13 6.16789 13 6.375V7.625C13 7.8321 13.1679 8 13.375 8H15.125C15.3321 8 15.5 8.16789 15.5 8.375V9.625C15.5 9.8321 15.3321 10 15.125 10H10C9.87507 9.99977 9.75456 10.0463 9.66223 10.1305C9.5699 10.2147 9.51243 10.3304 9.50114 10.4548C9.48985 10.5793 9.52556 10.7034 9.60123 10.8028C9.67691 10.9023 9.78707 10.9697 9.91001 10.992L10 11H14C14.6631 11 15.2989 11.2634 15.7678 11.7322C16.2366 12.2011 16.5 12.837 16.5 13.5C16.5 14.163 16.2366 14.7989 15.7678 15.2678C15.2989 15.7366 14.6631 16 14 16H13.375C13.1679 16 13 16.1679 13 16.375V17.625C13 17.8321 12.8321 18 12.625 18H11.375C11.1679 18 11 17.8321 11 17.625V16.375C11 16.1679 10.8321 16 10.625 16H8.87501C8.66791 16 8.50001 15.8321 8.50001 15.625V14.375C8.50001 14.1679 8.66791 14 8.87501 14H14C14.125 14.0002 14.2455 13.9537 14.3378 13.8695C14.4301 13.7853 14.4876 13.6696 14.4989 13.5452C14.5102 13.4207 14.4745 13.2966 14.3988 13.1972C14.3231 13.0977 14.213 13.0303 14.09 13.008L14 13H10C9.33697 13 8.70109 12.7366 8.23225 12.2678C7.76341 11.7989 7.50001 11.163 7.50001 10.5C7.50001 9.83696 7.76341 9.20107 8.23225 8.73223C8.70109 8.26339 9.33697 8 10 8H10.625C10.8321 8 11 7.8321 11 7.625V6.375C11 6.16789 11.1679 6 11.375 6H12.625Z" fill="#212121"/>
</svg>
