<svg width="24" height="24" viewBox="0 0 24 24" fill="none" xmlns="http://www.w3.org/2000/svg">
<path d="M20.9021 7.47378C20.7725 6.79584 19.9502 6.64572 19.4621 7.13379L17.5009 9.09516C17.1104 9.48572 16.4772 9.48572 16.0866 9.09516L14.9039 7.91234C14.5134 7.52182 14.5134 6.88869 14.9039 6.49817L16.8641 4.53785C17.3521 4.04982 17.202 3.22754 16.5241 3.09797C15.8802 2.97489 15.2158 2.96701 14.5621 3.07869C13.4405 3.27034 12.4057 3.80463 11.6 4.60816C10.9177 5.29202 10.4272 6.14327 10.1777 7.07652C9.97809 7.82331 9.93837 8.6016 10.0586 9.3609C10.1144 9.71375 10.0229 10.081 9.77031 10.3336L3.80926 16.2951C2.73025 17.3742 2.73025 19.1116 3.80926 20.1907C4.88827 21.2698 6.6256 21.2698 7.70462 20.1907L13.6669 14.228C13.9195 13.9753 14.2868 13.8838 14.6397 13.9397C15.3986 14.0598 16.1765 14.0202 16.9229 13.8207C17.8558 13.5715 18.7069 13.0813 19.3907 12.3994C20.1946 11.5937 20.7293 10.5587 20.9212 9.43669C21.033 8.78276 21.0252 8.11798 20.9021 7.47378Z" fill="#212121"/>
</svg>
